<svg t="1687922625316" class="icon" viewBox="0 0 1024 1024" version="1.1" xmlns="http://www.w3.org/2000/svg" p-id="3266" data-spm-anchor-id="a313x.7781069.0.i0" width="200" height="200"><path d="M544 1023.999998c-2.304 0-4.608-0.256-6.944-0.768-14.656-3.264-25.056-16.224-25.056-31.232l0-479.999999-479.999999 0c-15.008 0-28-10.432-31.232-25.056s4.128-29.6 17.696-35.936l959.999998-447.999999c12.192-5.696 26.656-3.136 36.16 6.368s12.064 23.968 6.368 36.16l-447.999999 959.999998c-5.344 11.456-16.768 18.464-28.992 18.464zM176.256001 447.999999l367.743999 0c17.664 0 32 14.336 32 32l0 367.743999 349.791999-749.535999-749.535999 349.791999z" fill="#444444" p-id="3267"></path></svg>